<?xml version="1.0" encoding="utf-8"?>
<svg width="80px" height="11px" viewbox="0 0 80 11" version="1.1" xmlns:xlink="http://www.w3.org/1999/xlink" xmlns="http://www.w3.org/2000/svg">
  <path d="M1.499 0L46.501 0Q46.5746 0 46.6479 0.00721809Q46.7212 0.0144362 46.7934 0.0288029Q46.8657 0.0431695 46.9361 0.0645464Q47.0066 0.0859233 47.0746 0.114105Q47.1427 0.142286 47.2076 0.177Q47.2726 0.211714 47.3338 0.252627Q47.395 0.29354 47.452 0.340257Q47.5089 0.386975 47.561 0.439047Q47.613 0.491119 47.6597 0.548044Q47.7065 0.60497 47.7474 0.6662Q47.7883 0.727431 47.823 0.792376Q47.8577 0.857322 47.8859 0.925357Q47.9141 0.993393 47.9355 1.06386Q47.9568 1.13433 47.9712 1.20656Q47.9856 1.27879 47.9928 1.35207Q48 1.42536 48 1.499L48 1.501Q48 1.57464 47.9928 1.64793Q47.9856 1.72121 47.9712 1.79344Q47.9568 1.86567 47.9355 1.93614Q47.9141 2.00661 47.8859 2.07464Q47.8577 2.14268 47.823 2.20762Q47.7883 2.27257 47.7474 2.3338Q47.7065 2.39503 47.6597 2.45196Q47.613 2.50888 47.561 2.56095Q47.5089 2.61303 47.452 2.65974Q47.395 2.70646 47.3338 2.74737Q47.2726 2.78829 47.2076 2.823Q47.1427 2.85771 47.0746 2.8859Q47.0066 2.91408 46.9361 2.93545Q46.8657 2.95683 46.7934 2.9712Q46.7212 2.98556 46.6479 2.99278Q46.5746 3 46.501 3L1.499 3Q1.42536 3 1.35207 2.99278Q1.27879 2.98556 1.20656 2.9712Q1.13433 2.95683 1.06386 2.93545Q0.993393 2.91408 0.925357 2.8859Q0.857322 2.85771 0.792376 2.823Q0.727431 2.78829 0.6662 2.74737Q0.60497 2.70646 0.548044 2.65974Q0.491119 2.61303 0.439047 2.56095Q0.386975 2.50888 0.340257 2.45196Q0.29354 2.39503 0.252627 2.3338Q0.211714 2.27257 0.177 2.20762Q0.142286 2.14268 0.114105 2.07464Q0.0859233 2.00661 0.0645464 1.93614Q0.0431695 1.86567 0.0288029 1.79344Q0.0144362 1.72121 0.00721809 1.64793Q0 1.57464 0 1.501L0 1.499Q0 1.42536 0.00721809 1.35207Q0.0144362 1.27879 0.0288029 1.20656Q0.0431695 1.13433 0.0645464 1.06386Q0.0859233 0.993393 0.114105 0.925357Q0.142286 0.857322 0.177 0.792376Q0.211714 0.727431 0.252627 0.6662Q0.29354 0.60497 0.340257 0.548044Q0.386975 0.491119 0.439047 0.439047Q0.491119 0.386975 0.548044 0.340257Q0.60497 0.29354 0.6662 0.252627Q0.727431 0.211714 0.792376 0.177Q0.857322 0.142286 0.925357 0.114105Q0.993393 0.0859233 1.06386 0.0645464Q1.13433 0.0431695 1.20656 0.0288029Q1.27879 0.0144362 1.35207 0.00721809Q1.42536 0 1.499 0Z" id="Rectangle" fill="#C54A4A" fill-rule="evenodd" stroke="none" />
  <path d="M1.499 0L46.501 0Q46.5746 0 46.6479 0.00721809Q46.7212 0.0144362 46.7934 0.0288029Q46.8657 0.0431695 46.9361 0.0645464Q47.0066 0.0859233 47.0746 0.114105Q47.1427 0.142286 47.2076 0.177Q47.2726 0.211714 47.3338 0.252627Q47.395 0.29354 47.452 0.340257Q47.5089 0.386975 47.561 0.439047Q47.613 0.491119 47.6597 0.548044Q47.7065 0.60497 47.7474 0.6662Q47.7883 0.727431 47.823 0.792376Q47.8577 0.857322 47.8859 0.925357Q47.9141 0.993393 47.9355 1.06386Q47.9568 1.13433 47.9712 1.20656Q47.9856 1.27879 47.9928 1.35207Q48 1.42536 48 1.499L48 1.501Q48 1.57464 47.9928 1.64793Q47.9856 1.72121 47.9712 1.79344Q47.9568 1.86567 47.9355 1.93614Q47.9141 2.00661 47.8859 2.07464Q47.8577 2.14268 47.823 2.20762Q47.7883 2.27257 47.7474 2.3338Q47.7065 2.39503 47.6597 2.45196Q47.613 2.50888 47.561 2.56095Q47.5089 2.61303 47.452 2.65974Q47.395 2.70646 47.3338 2.74737Q47.2726 2.78829 47.2076 2.823Q47.1427 2.85771 47.0746 2.8859Q47.0066 2.91408 46.9361 2.93545Q46.8657 2.95683 46.7934 2.9712Q46.7212 2.98556 46.6479 2.99278Q46.5746 3 46.501 3L1.499 3Q1.42536 3 1.35207 2.99278Q1.27879 2.98556 1.20656 2.9712Q1.13433 2.95683 1.06386 2.93545Q0.993393 2.91408 0.925357 2.8859Q0.857322 2.85771 0.792376 2.823Q0.727431 2.78829 0.6662 2.74737Q0.60497 2.70646 0.548044 2.65974Q0.491119 2.61303 0.439047 2.56095Q0.386975 2.50888 0.340257 2.45196Q0.29354 2.39503 0.252627 2.3338Q0.211714 2.27257 0.177 2.20762Q0.142286 2.14268 0.114105 2.07464Q0.0859233 2.00661 0.0645464 1.93614Q0.0431695 1.86567 0.0288029 1.79344Q0.0144362 1.72121 0.00721809 1.64793Q0 1.57464 0 1.501L0 1.499Q0 1.42536 0.00721809 1.35207Q0.0144362 1.27879 0.0288029 1.20656Q0.0431695 1.13433 0.0645464 1.06386Q0.0859233 0.993393 0.114105 0.925357Q0.142286 0.857322 0.177 0.792376Q0.211714 0.727431 0.252627 0.6662Q0.29354 0.60497 0.340257 0.548044Q0.386975 0.491119 0.439047 0.439047Q0.491119 0.386975 0.548044 0.340257Q0.60497 0.29354 0.6662 0.252627Q0.727431 0.211714 0.792376 0.177Q0.857322 0.142286 0.925357 0.114105Q0.993393 0.0859233 1.06386 0.0645464Q1.13433 0.0431695 1.20656 0.0288029Q1.27879 0.0144362 1.35207 0.00721809Q1.42536 0 1.499 0Z" transform="translate(32 8)" id="Rectangle-2" fill="#C54A4A" fill-rule="evenodd" stroke="none" />
</svg>