<?xml version="1.0" encoding="utf-8"?>
<svg width="30px" height="39px" viewbox="0 0 30 39" version="1.1" xmlns:xlink="http://www.w3.org/1999/xlink" xmlns="http://www.w3.org/2000/svg">
  <g id="Dropdown-Menu">
    <path d="M1.49825 0L23.5018 0Q23.5754 0 23.6486 0.00721447Q23.7219 0.0144289 23.794 0.0287884Q23.8662 0.0431479 23.9367 0.064514Q24.0071 0.0858802 24.0751 0.114047Q24.1431 0.142214 24.208 0.176911Q24.2729 0.211608 24.3341 0.2525Q24.3953 0.293393 24.4522 0.340086Q24.5091 0.386781 24.5612 0.438827Q24.6132 0.490873 24.6599 0.547769Q24.7066 0.604666 24.7475 0.665866Q24.7884 0.727065 24.8231 0.791979Q24.8578 0.856892 24.8859 0.924893Q24.9141 0.992894 24.9355 1.06333Q24.9569 1.13376 24.9712 1.20595Q24.9856 1.27814 24.9928 1.35139Q25 1.42464 25 1.49825L25 1.50025Q25 1.57385 24.9928 1.6471Q24.9856 1.72035 24.9712 1.79254Q24.9569 1.86473 24.9355 1.93517Q24.9141 2.0056 24.8859 2.0736Q24.8578 2.1416 24.8231 2.20652Q24.7884 2.27143 24.7475 2.33263Q24.7066 2.39383 24.6599 2.45073Q24.6132 2.50762 24.5612 2.55967Q24.5091 2.61171 24.4522 2.65841Q24.3953 2.7051 24.3341 2.74599Q24.2729 2.78689 24.208 2.82158Q24.1431 2.85628 24.0751 2.88445Q24.0071 2.91261 23.9367 2.93398Q23.8662 2.95535 23.794 2.96971Q23.7219 2.98407 23.6486 2.99128Q23.5754 2.9985 23.5018 2.9985L20.0197 2.9985L1.49825 2.9985Q1.42464 2.9985 1.35139 2.99128Q1.27814 2.98407 1.20595 2.96971Q1.13376 2.95535 1.06333 2.93398Q0.992894 2.91261 0.924893 2.88445Q0.856892 2.85628 0.791979 2.82158Q0.727065 2.78689 0.665866 2.74599Q0.604666 2.7051 0.547769 2.65841Q0.490873 2.61171 0.438827 2.55967Q0.386781 2.50762 0.340086 2.45073Q0.293393 2.39383 0.2525 2.33263Q0.211608 2.27143 0.176911 2.20652Q0.142214 2.1416 0.114047 2.0736Q0.0858802 2.0056 0.064514 1.93517Q0.0431479 1.86473 0.0287884 1.79254Q0.0144289 1.72035 0.00721447 1.6471Q0 1.57385 0 1.50025L0 1.49825Q0 1.42464 0.00721447 1.35139Q0.0144289 1.27814 0.0287884 1.20595Q0.0431479 1.13376 0.064514 1.06333Q0.0858802 0.992894 0.114047 0.924893Q0.142214 0.856892 0.176911 0.791979Q0.211608 0.727065 0.2525 0.665866Q0.293393 0.604666 0.340086 0.547769Q0.386781 0.490873 0.438827 0.438827Q0.490873 0.386781 0.547769 0.340086Q0.604666 0.293393 0.665866 0.2525Q0.727065 0.211608 0.791979 0.176911Q0.856892 0.142214 0.924893 0.114047Q0.992894 0.0858802 1.06333 0.064514Q1.13376 0.0431479 1.20595 0.0287884Q1.27814 0.0144289 1.35139 0.00721447Q1.42464 0 1.49825 0L1.49825 0Z" id="Rectangle-5" fill="#F1F1F1" fill-rule="evenodd" stroke="none" />
    <path d="M1.49825 0L28.5018 0Q28.5754 0 28.6486 0.00721447Q28.7219 0.0144289 28.794 0.0287884Q28.8662 0.0431479 28.9367 0.064514Q29.0071 0.0858802 29.0751 0.114047Q29.1431 0.142214 29.208 0.176911Q29.2729 0.211608 29.3341 0.2525Q29.3953 0.293393 29.4522 0.340086Q29.5091 0.386781 29.5612 0.438827Q29.6132 0.490873 29.6599 0.547769Q29.7066 0.604666 29.7475 0.665866Q29.7884 0.727065 29.8231 0.791979Q29.8578 0.856892 29.886 0.924893Q29.9141 0.992894 29.9355 1.06333Q29.9569 1.13376 29.9712 1.20595Q29.9856 1.27814 29.9928 1.35139Q30 1.42464 30 1.49825L30 1.50025Q30 1.57385 29.9928 1.6471Q29.9856 1.72035 29.9712 1.79254Q29.9569 1.86473 29.9355 1.93517Q29.9141 2.0056 29.886 2.0736Q29.8578 2.1416 29.8231 2.20652Q29.7884 2.27143 29.7475 2.33263Q29.7066 2.39383 29.6599 2.45073Q29.6132 2.50762 29.5612 2.55967Q29.5091 2.61171 29.4522 2.65841Q29.3953 2.7051 29.3341 2.74599Q29.2729 2.78689 29.208 2.82158Q29.1431 2.85628 29.0751 2.88445Q29.0071 2.91261 28.9367 2.93398Q28.8662 2.95535 28.794 2.96971Q28.7219 2.98407 28.6486 2.99128Q28.5754 2.9985 28.5018 2.9985L24.0236 2.9985L1.49825 2.9985Q1.42464 2.9985 1.35139 2.99128Q1.27814 2.98407 1.20595 2.96971Q1.13376 2.95535 1.06333 2.93398Q0.992894 2.91261 0.924893 2.88445Q0.856892 2.85628 0.791979 2.82158Q0.727065 2.78689 0.665866 2.74599Q0.604666 2.7051 0.547769 2.65841Q0.490873 2.61171 0.438827 2.55967Q0.386781 2.50762 0.340086 2.45073Q0.293393 2.39383 0.2525 2.33263Q0.211608 2.27143 0.176911 2.20652Q0.142214 2.1416 0.114047 2.0736Q0.0858802 2.0056 0.064514 1.93517Q0.0431479 1.86473 0.0287884 1.79254Q0.0144289 1.72035 0.00721447 1.6471Q0 1.57385 0 1.50025L0 1.49825Q0 1.42464 0.00721447 1.35139Q0.0144289 1.27814 0.0287884 1.20595Q0.0431479 1.13376 0.064514 1.06333Q0.0858802 0.992894 0.114047 0.924893Q0.142214 0.856892 0.176911 0.791979Q0.211608 0.727065 0.2525 0.665866Q0.293393 0.604666 0.340086 0.547769Q0.386781 0.490873 0.438827 0.438827Q0.490873 0.386781 0.547769 0.340086Q0.604666 0.293393 0.665866 0.2525Q0.727065 0.211608 0.791979 0.176911Q0.856892 0.142214 0.924893 0.114047Q0.992894 0.0858802 1.06333 0.064514Q1.13376 0.0431479 1.20595 0.0287884Q1.27814 0.0144289 1.35139 0.00721447Q1.42464 0 1.49825 0L1.49825 0Z" transform="translate(0 11.800018)" id="Rectangle-6" fill="#F1F1F1" fill-rule="evenodd" stroke="none" />
    <path d="M1.49825 0L13.5018 0Q13.5754 0 13.6486 0.00721447Q13.7219 0.0144289 13.794 0.0287884Q13.8662 0.0431479 13.9367 0.064514Q14.0071 0.0858802 14.0751 0.114047Q14.1431 0.142214 14.208 0.176911Q14.2729 0.211608 14.3341 0.2525Q14.3953 0.293393 14.4522 0.340086Q14.5091 0.386781 14.5612 0.438827Q14.6132 0.490873 14.6599 0.547769Q14.7066 0.604666 14.7475 0.665866Q14.7884 0.727065 14.8231 0.791979Q14.8578 0.856892 14.886 0.924893Q14.9141 0.992894 14.9355 1.06333Q14.9569 1.13376 14.9712 1.20595Q14.9856 1.27814 14.9928 1.35139Q15 1.42464 15 1.49825L15 1.5054Q15 1.57875 14.9928 1.65175Q14.9856 1.72475 14.9713 1.79669Q14.957 1.86863 14.9357 1.93882Q14.9144 2.00902 14.8863 2.07678Q14.8583 2.14455 14.8237 2.20924Q14.7891 2.27393 14.7484 2.33492Q14.7076 2.39591 14.6611 2.45261Q14.6146 2.50931 14.5627 2.56118Q14.5108 2.61305 14.4541 2.65958Q14.3974 2.70611 14.3364 2.74686Q14.2754 2.78762 14.2107 2.82219Q14.1461 2.85677 14.0783 2.88484Q14.0105 2.91291 13.9403 2.9342Q13.8701 2.9555 13.7982 2.96981Q13.7263 2.98412 13.6533 2.99131Q13.5803 2.9985 13.5069 2.9985L12.0118 2.9985L1.49825 2.9985Q1.42464 2.9985 1.35139 2.99128Q1.27814 2.98407 1.20595 2.96971Q1.13376 2.95535 1.06333 2.93398Q0.992894 2.91261 0.924893 2.88445Q0.856892 2.85628 0.791979 2.82158Q0.727065 2.78689 0.665866 2.74599Q0.604666 2.7051 0.547769 2.65841Q0.490873 2.61171 0.438827 2.55967Q0.386781 2.50762 0.340086 2.45073Q0.293393 2.39383 0.2525 2.33263Q0.211608 2.27143 0.176911 2.20652Q0.142214 2.1416 0.114047 2.0736Q0.0858802 2.0056 0.064514 1.93517Q0.0431479 1.86473 0.0287884 1.79254Q0.0144289 1.72035 0.00721447 1.6471Q0 1.57385 0 1.50025L0 1.49825Q0 1.42464 0.00721447 1.35139Q0.0144289 1.27814 0.0287884 1.20595Q0.0431479 1.13376 0.064514 1.06333Q0.0858802 0.992894 0.114047 0.924893Q0.142214 0.856892 0.176911 0.791979Q0.211608 0.727065 0.2525 0.665866Q0.293393 0.604666 0.340086 0.547769Q0.386781 0.490873 0.438827 0.438827Q0.490873 0.386781 0.547769 0.340086Q0.604666 0.293393 0.665866 0.2525Q0.727065 0.211608 0.791979 0.176911Q0.856892 0.142214 0.924893 0.114047Q0.992894 0.0858802 1.06333 0.064514Q1.13376 0.0431479 1.20595 0.0287884Q1.27814 0.0144289 1.35139 0.00721447Q1.42464 0 1.49825 0L1.49825 0Z" transform="translate(0 35.399994)" id="Rectangle-8" fill="#F1F1F1" fill-rule="evenodd" stroke="none" />
    <path d="M1.49825 0L19.5018 0Q19.5754 0 19.6486 0.00721447Q19.7219 0.0144289 19.794 0.0287884Q19.8662 0.0431479 19.9367 0.064514Q20.0071 0.0858802 20.0751 0.114047Q20.1431 0.142214 20.208 0.176911Q20.2729 0.211608 20.3341 0.2525Q20.3953 0.293393 20.4522 0.340086Q20.5091 0.386781 20.5612 0.438827Q20.6132 0.490873 20.6599 0.547769Q20.7066 0.604666 20.7475 0.665866Q20.7884 0.727065 20.8231 0.791979Q20.8578 0.856892 20.886 0.924893Q20.9141 0.992894 20.9355 1.06333Q20.9568 1.13376 20.9712 1.20595Q20.9856 1.27814 20.9928 1.35139Q21 1.42464 21 1.49825L21 1.50025Q21 1.57385 20.9928 1.6471Q20.9856 1.72035 20.9712 1.79254Q20.9568 1.86473 20.9355 1.93517Q20.9141 2.0056 20.886 2.0736Q20.8578 2.1416 20.8231 2.20652Q20.7884 2.27143 20.7475 2.33263Q20.7066 2.39383 20.6599 2.45073Q20.6132 2.50762 20.5612 2.55967Q20.5091 2.61171 20.4522 2.65841Q20.3953 2.7051 20.3341 2.74599Q20.2729 2.78689 20.208 2.82158Q20.1431 2.85628 20.0751 2.88445Q20.0071 2.91261 19.9367 2.93398Q19.8662 2.95535 19.794 2.96971Q19.7219 2.98407 19.6486 2.99128Q19.5754 2.9985 19.5018 2.9985L16.8165 2.9985L1.49825 2.9985Q1.42464 2.9985 1.35139 2.99128Q1.27814 2.98407 1.20595 2.96971Q1.13376 2.95535 1.06333 2.93398Q0.992894 2.91261 0.924893 2.88445Q0.856892 2.85628 0.791979 2.82158Q0.727065 2.78689 0.665866 2.74599Q0.604666 2.7051 0.547769 2.65841Q0.490873 2.61171 0.438827 2.55967Q0.386781 2.50762 0.340086 2.45073Q0.293393 2.39383 0.2525 2.33263Q0.211608 2.27143 0.176911 2.20652Q0.142214 2.1416 0.114047 2.0736Q0.0858802 2.0056 0.064514 1.93517Q0.0431479 1.86473 0.0287884 1.79254Q0.0144289 1.72035 0.00721447 1.6471Q0 1.57385 0 1.50025L0 1.49825Q0 1.42464 0.00721447 1.35139Q0.0144289 1.27814 0.0287884 1.20595Q0.0431479 1.13376 0.064514 1.06333Q0.0858802 0.992894 0.114047 0.924893Q0.142214 0.856892 0.176911 0.791979Q0.211608 0.727065 0.2525 0.665866Q0.293393 0.604666 0.340086 0.547769Q0.386781 0.490873 0.438827 0.438827Q0.490873 0.386781 0.547769 0.340086Q0.604666 0.293393 0.665866 0.2525Q0.727065 0.211608 0.791979 0.176911Q0.856892 0.142214 0.924893 0.114047Q0.992894 0.0858802 1.06333 0.064514Q1.13376 0.0431479 1.20595 0.0287884Q1.27814 0.0144289 1.35139 0.00721447Q1.42464 0 1.49825 0L1.49825 0Z" transform="translate(0 23.59845)" id="Rectangle-7" fill="#F1F1F1" fill-rule="evenodd" stroke="none" />
  </g>
</svg>